<svg id="Layer_1" data-name="Layer 1" xmlns="http://www.w3.org/2000/svg" viewBox="0 0 32.64 16.58"><defs><style>.cls-1{fill:#00aeef;}.cls-2{fill:#fff;}</style></defs><title>btn-post</title><rect class="cls-1" width="32.64" height="16.58" rx="3" ry="3"/><path class="cls-2" d="M4,4H7.76a4.44,4.44,0,0,1,2.71.74,2.65,2.65,0,0,1,1,2.24V7a2.76,2.76,0,0,1-1.06,2.31,4.38,4.38,0,0,1-2.76.79H6.79V12.4H4ZM7.54,8.12c.8,0,1.2-.31,1.2-.92v0c0-.61-.4-.92-1.19-.92H6.79V8.12Z"/><path class="cls-2" d="M12,4H14.9V8.6c0,1,.43,1.49,1.3,1.49s1.3-.48,1.3-1.43V4h2.85V8.58q0,4-4.17,4T12,8.64Z"/><path class="cls-2" d="M23.38,6.38H20.91V4h7.75V6.38H26.19v6H23.38Z"/></svg>