<svg id="Layer_1" data-name="Layer 1" xmlns="http://www.w3.org/2000/svg" viewBox="0 0 32.64 16.58"><defs><style>.cls-1{fill:#00a651;}.cls-2{fill:#fff;}</style></defs><title>btn-get</title><rect class="cls-1" width="32.64" height="16.58" rx="3" ry="3"/><path class="cls-2" d="M4,8.31v0A4.13,4.13,0,0,1,5.32,5.16,4.63,4.63,0,0,1,8.63,3.91a5.15,5.15,0,0,1,3.51,1.27l-1.57,1.9a2.81,2.81,0,0,0-1.86-.73,1.82,1.82,0,0,0-1.36.56,2,2,0,0,0-.53,1.42v0A2,2,0,0,0,7.39,9.8a2,2,0,0,0,1.44.55,2,2,0,0,0,1-.19V9.32H8.35V7.52h4.07v3.89a5.68,5.68,0,0,1-3.71,1.26,4.78,4.78,0,0,1-3.33-1.2A4,4,0,0,1,4,8.31Z"/><path class="cls-2" d="M13.24,4.09H20.4v2.3H16v.85h4.1v2H16v.91h4.46v2.3H13.24Z"/><path class="cls-2" d="M23.37,6.46H20.9V4.09h7.75V6.46H26.17v6H23.37Z"/></svg>