<svg id="Layer_1" data-name="Layer 1" xmlns="http://www.w3.org/2000/svg" viewBox="0 0 55.6 16.76"><defs><style>.cls-1{fill:#f04b56;}.cls-2{fill:#fff;}</style></defs><title>btn-delete</title><rect class="cls-1" width="55.6" height="16.76" rx="3" ry="3"/><path class="cls-2" d="M4,4.18H7.21A5.57,5.57,0,0,1,11,5.31a3.8,3.8,0,0,1,1.25,3v0a3.88,3.88,0,0,1-1.27,3.06,5.62,5.62,0,0,1-3.83,1.19H4ZM6.81,6.63v3.5h.47c1.4,0,2.11-.58,2.11-1.74v0c0-1.16-.71-1.74-2.11-1.74Z"/><path class="cls-2" d="M13,4.18h7.16v2.3h-4.4v.85h4.1v2h-4.1v.91h4.46v2.3H13Z"/><path class="cls-2" d="M21,4.18h2.81v6h3.95v2.4H21Z"/><path class="cls-2" d="M28.34,4.18H35.5v2.3h-4.4v.85h4.1v2h-4.1v.91h4.46v2.3H28.34Z"/><path class="cls-2" d="M38.46,6.55H36V4.18h7.75V6.55H41.27v6H38.46Z"/><path class="cls-2" d="M44.38,4.18h7.16v2.3h-4.4v.85h4.1v2h-4.1v.91H51.6v2.3H44.38Z"/></svg>