<svg id="Layer_1" data-name="Layer 1" xmlns="http://www.w3.org/2000/svg" viewBox="0 0 40.64 16.76"><defs><style>.cls-1{fill:#00aeef;}.cls-2{fill:#fff;}</style></defs><title>btn-post</title><rect class="cls-1" width="40.64" height="16.76" rx="3" ry="3"/><path class="cls-2" d="M3.87,4.18H7.64a4.44,4.44,0,0,1,2.71.74,2.65,2.65,0,0,1,1,2.24v0A2.76,2.76,0,0,1,10.34,9.5a4.38,4.38,0,0,1-2.76.79H6.67v2.28H3.87ZM7.43,8.29c.8,0,1.2-.31,1.2-.92v0c0-.61-.4-.92-1.19-.92H6.67V8.29Z"/><path class="cls-2" d="M11.81,8.4v0a4.14,4.14,0,0,1,1.33-3.11A4.54,4.54,0,0,1,16.4,4a4.57,4.57,0,0,1,3.26,1.26A4.11,4.11,0,0,1,21,8.35v0a4.17,4.17,0,0,1-1.32,3.11,4.58,4.58,0,0,1-3.27,1.27,4.53,4.53,0,0,1-3.25-1.26A4.12,4.12,0,0,1,11.81,8.4Zm6.33,0v0a1.9,1.9,0,0,0-.48-1.32,1.72,1.72,0,0,0-2.55,0,1.92,1.92,0,0,0-.47,1.31v0a1.9,1.9,0,0,0,.48,1.32,1.72,1.72,0,0,0,2.55,0A1.92,1.92,0,0,0,18.14,8.4Z"/><path class="cls-2" d="M22.49,9.53a4.67,4.67,0,0,0,2.94,1q.72,0,.72-.36v0c0-.22-.38-.4-1.16-.55a7.68,7.68,0,0,1-2.47-.83,2.1,2.1,0,0,1-1.07-1.87v0a2.51,2.51,0,0,1,.91-2A4,4,0,0,1,25,4,5.92,5.92,0,0,1,28.8,5.18l-1.37,1.9a4.17,4.17,0,0,0-2.52-.83c-.41,0-.61.12-.61.35v0q0,.32,1.12.54A7.24,7.24,0,0,1,28,8a2.1,2.1,0,0,1,1,1.85v0A2.49,2.49,0,0,1,28,12a4.35,4.35,0,0,1-2.7.76A6.3,6.3,0,0,1,21,11.32Z"/><path class="cls-2" d="M31.5,6.55H29V4.18h7.75V6.55H34.31v6H31.5Z"/></svg>